<svg width="597" height="373" viewBox="0 0 597 373" fill="none" xmlns="http://www.w3.org/2000/svg">
<g clip-path="url(#clip0_3_3)">
<path d="M299.307 171.727C288.799 171.727 280.28 164.169 280.28 154.846C280.28 145.523 288.799 137.966 299.307 137.966C309.816 137.966 318.334 145.523 318.334 154.846C318.334 164.169 309.816 171.727 299.307 171.727Z" fill="#EDD147"/>
<path d="M507.139 22.1979V182.965C507.134 186.871 505.383 190.615 502.27 193.377C499.157 196.139 494.937 197.692 490.535 197.697H16.6046C12.2024 197.692 7.98203 196.139 4.8692 193.377C1.75638 190.615 0.00521851 186.871 -6.10352e-05 182.965V22.1979C0.00521851 18.2923 1.75638 14.548 4.8692 11.7863C7.98203 9.02466 12.2024 7.47107 16.6046 7.46637H490.535C494.937 7.47107 499.157 9.02465 502.27 11.7863C505.383 14.548 507.134 18.2923 507.139 22.1979ZM505.676 22.1979C505.676 18.6352 504.08 15.2185 501.241 12.6993C498.402 10.1801 494.55 8.76487 490.535 8.76487H115.387C85.1729 8.76487 56.1959 19.4135 34.8311 38.3683C13.4662 57.3231 1.46353 83.0312 1.46353 109.837V182.965C1.46353 186.528 3.05872 189.945 5.89822 192.464C8.7377 194.983 12.5889 196.398 16.6046 196.398H490.535C494.55 196.398 498.402 194.983 501.241 192.464C504.08 189.945 505.676 186.528 505.676 182.965V22.1979Z" fill="#443BFF"/>
<path d="M501.675 360.905L491.058 360.905L486.008 324.575L501.677 324.577L501.675 360.905Z" fill="#FFB6B6"/>
<path d="M502.049 370.731L469.402 370.73V370.364C469.403 367.374 470.741 364.507 473.124 362.393C475.507 360.278 478.739 359.091 482.109 359.09H482.11L488.073 355.077L499.199 359.091L502.049 359.091L502.049 370.731Z" fill="#2F2E41"/>
<path d="M547.985 360.905L537.368 360.905L532.318 324.575L547.987 324.577L547.985 360.905Z" fill="#FFB6B6"/>
<path d="M548.358 370.731L515.712 370.73V370.364C515.712 367.374 517.051 364.507 519.434 362.393C521.817 360.278 525.049 359.091 528.419 359.09H528.42L534.383 355.077L545.509 359.091L548.359 359.091L548.358 370.731Z" fill="#2F2E41"/>
<path d="M475.242 162.957C475.242 162.957 465.027 190.79 466.913 194.453C468.798 198.116 472.015 195.262 468.798 198.116C465.581 200.97 462.773 197.936 465.786 202.783C468.798 207.629 473.362 247.525 475.369 249.456C477.376 251.387 480.135 251.439 477.683 253.316C475.231 255.193 472.015 251.387 475.231 255.193C478.448 258.998 486.984 346.777 486.984 346.777H503.658C503.658 346.777 507.811 342.53 505.46 339.766C503.109 337.002 505.666 335.937 505.46 334.091C505.254 332.246 506.036 328.267 506.181 326.451C506.326 324.635 509.144 281.382 502.374 256.396L514.719 208.821L529.673 266.322C529.673 266.322 522.794 314.554 529.673 330.058C529.673 330.058 524.127 334.156 526.587 336.53C529.047 338.905 531.191 337.002 529.047 338.905C526.902 340.807 532.263 347.466 532.263 347.466L550.491 346.515L560.808 256.396C560.808 256.396 562.547 246.998 560.808 245.388C559.069 243.777 559.069 249.485 559.069 243.777V236.167C559.069 236.167 558.062 189.36 557.927 186.603C557.793 183.847 544.926 163.87 544.926 163.87L475.242 162.957Z" fill="#2F2E41"/>
<path d="M475.394 66.8274V121.709C477.391 127.023 478.421 132.585 478.445 138.187C478.379 147.516 476.067 158.268 476.074 162.968C476.043 163.592 476.12 164.216 476.301 164.819C486.539 191.146 540.714 167.221 545.639 164.981C545.874 164.877 545.998 164.819 545.998 164.819L544.93 135.33L545.113 126.851L546.379 68.6842L545.244 67.8792L535.306 60.8478L534.333 60.1596L531.347 64.0226L504.732 62.3995L494.574 59.9064L491.406 61.049L477.121 66.2041L475.394 66.8274Z" fill="#443BFF"/>
<path d="M382.634 109.954L401.286 104.483L406.295 113.5L386.344 118.662C385.691 119.58 384.763 120.319 383.664 120.795C382.565 121.271 381.337 121.465 380.12 121.357C378.903 121.248 377.744 120.84 376.774 120.179C375.804 119.518 375.061 118.63 374.628 117.614C374.196 116.599 374.091 115.497 374.326 114.432C374.561 113.366 375.126 112.38 375.957 111.585C376.789 110.789 377.855 110.215 379.034 109.926C380.214 109.638 381.461 109.648 382.634 109.954H382.634Z" fill="#FFB6B6"/>
<path d="M493.461 61.4891L493.538 61.763C494.996 66.9359 496.857 81.7115 492.869 85.7011C487.749 90.8308 446.387 106.491 438.171 105.215C431.798 104.225 433.11 104.558 430.061 107.372C427.011 110.186 432.072 110.844 425.271 111.336C418.469 111.829 418.334 109.518 416.877 112.08C415.42 114.643 416.716 116.187 412.087 116.045C407.458 115.902 406.298 116.668 404.706 116.92C403.113 117.172 393.115 121.377 393.115 121.377C393.115 121.377 389.104 111.225 384.055 107.359C384.055 107.359 395.634 106.111 396.51 103.932C397.387 101.752 396.671 99.8249 399.708 100.219C402.744 100.614 404.324 103.571 403.905 99.8472C403.485 96.1237 425.359 88.875 425.359 88.875C438.559 77.3442 465.681 69.3334 493.461 61.4891Z" fill="#443BFF"/>
<path d="M552.638 176.11L553.484 158.697L564.763 157.738L563.13 176.12C563.867 176.986 564.317 178.018 564.429 179.099C564.541 180.179 564.311 181.267 563.764 182.238C563.218 183.209 562.377 184.026 561.337 184.596C560.296 185.167 559.096 185.468 557.873 185.467C556.65 185.466 555.451 185.162 554.412 184.59C553.372 184.017 552.533 183.199 551.989 182.227C551.446 181.254 551.218 180.167 551.333 179.086C551.447 178.006 551.899 176.975 552.638 176.11Z" fill="#FFB6B6"/>
<path d="M540.848 66.9897L541.164 67.0227C544.104 67.3304 546.915 68.2693 549.354 69.7579C551.793 71.2466 553.786 73.2403 555.161 75.5663C558.752 81.6326 570.113 122.72 567.331 128.358C564.737 133.617 564.844 132.324 566.73 135.851C568.615 139.378 571.102 135.413 569.21 141.23C567.317 147.046 564.834 146.34 567.018 148.457C569.203 150.574 571.29 150.046 569.498 153.835C567.707 157.625 568.104 158.859 567.804 160.269C567.505 161.68 568.392 171.465 568.392 171.465C568.392 171.465 556.271 171.193 550.406 174.011C550.406 174.011 553.196 163.963 551.21 162.464C549.224 160.964 546.939 160.874 548.431 158.495C549.923 156.116 553.599 155.854 549.526 154.882C545.453 153.909 545.568 133.194 545.568 133.194L540.848 66.9897Z" fill="#443BFF"/>
<path d="M511.786 44.7983C512.262 44.8957 512.738 44.9801 513.213 45.045C514.666 45.2567 516.141 45.3242 517.611 45.2463C521.44 45.0639 525.137 43.9441 528.293 42.0112C531.448 40.0783 533.938 37.4078 535.487 34.2959C537.036 31.1839 537.584 27.7521 537.068 24.3811C536.553 21.0101 534.995 17.8316 532.568 15.1981C530.141 12.5646 526.939 10.579 523.317 9.46155C519.695 8.3441 515.796 8.13846 512.05 8.86743C508.305 9.5964 504.86 11.2315 502.098 13.5914C499.337 15.9512 497.366 18.9437 496.404 22.2368C496.36 22.3861 496.316 22.529 496.279 22.6783C495.031 27.4359 495.963 32.4387 498.871 36.5867C501.779 40.7347 506.424 43.6884 511.786 44.7983Z" fill="#FFB6B6"/>
<path d="M530.946 42.6248C533.834 40.6201 534.114 36.7988 536.578 34.3899C540.698 30.3625 542.633 26.0295 540.475 21.2574C538.566 17.0365 538.972 11.8481 534.861 9.13117C536.88 8.48273 537.355 7.13614 535.574 7.11127C534.372 7.09451 529.894 9.13154 532.049 6.59394C534.204 4.05634 530.125 5.05799 530.395 4.01927C530.664 2.98055 532.394 2.40523 533.158 3.22861C530.721 0.696135 525.401 1.23605 523.673 4.19119C521.245 0.962649 518.667 -1.25889 514.952 0.789936C511.302 2.80219 511.35 5.28963 507.426 4.69183C505.581 4.41081 505.407 7.50308 504.146 8.73094C502.886 9.95881 501.044 10.9091 499.204 10.6007C497.365 10.2923 495.959 8.25875 496.989 6.87246L492.654 15.6466L490.907 13.7453C488.131 15.3504 489.043 19.5388 491.837 21.1187C494.632 22.6986 499.965 19.047 501.481 21.6608C503.872 25.7811 509.48 23.7005 513.331 20.7887C518.001 17.2574 523.638 27.9943 521.389 33.0588C523.723 31.0252 528.041 32.7128 529.25 35.4097C530.46 38.1066 529.573 41.1451 528.676 43.9365L530.946 42.6248Z" fill="#2F2E41"/>
<path d="M242.501 103.248H264.468C265.038 103.248 265.584 103.047 265.987 102.689C266.39 102.332 266.617 101.847 266.618 101.341V82.0898C266.617 81.5841 266.39 81.0993 265.987 80.7417C265.584 80.3842 265.038 80.183 264.468 80.1825H242.501C241.931 80.183 241.384 80.3842 240.981 80.7417C240.578 81.0993 240.352 81.5841 240.351 82.0898V101.341C240.352 101.847 240.578 102.332 240.981 102.689C241.384 103.047 241.931 103.248 242.501 103.248Z" fill="#F2F2F2"/>
<path d="M238.844 104.871H260.811C261.381 104.87 261.927 104.669 262.33 104.312C262.733 103.954 262.96 103.469 262.961 102.963V83.7122C262.96 83.2065 262.733 82.7216 262.33 82.3641C261.927 82.0065 261.381 81.8053 260.811 81.8048H238.844C238.274 81.8053 237.727 82.0065 237.324 82.3641C236.921 82.7216 236.694 83.2065 236.694 83.7122V102.963C236.694 103.469 236.921 103.954 237.324 104.311C237.727 104.669 238.274 104.87 238.844 104.871Z" fill="#F2F2F2"/>
<path d="M264.007 80.7508C264.53 80.7508 265.031 80.9349 265.4 81.2626C265.77 81.5903 265.977 82.0348 265.977 82.4983V100.933C265.977 101.396 265.77 101.841 265.4 102.168C265.031 102.496 264.53 102.68 264.007 102.68H250.575C248.033 102.68 245.596 101.784 243.799 100.19C242.001 98.5953 240.992 96.4326 240.992 94.1776V82.4983C240.992 82.0348 241.199 81.5903 241.569 81.2626C241.938 80.9349 242.439 80.7508 242.961 80.7508H264.007Z" fill="white"/>
<path d="M247.601 86.3453H259.414C259.522 86.3453 259.626 86.3071 259.703 86.2391C259.779 86.1711 259.823 86.0789 259.823 85.9827C259.823 85.8865 259.779 85.7943 259.703 85.7263C259.626 85.6583 259.522 85.6201 259.414 85.6201H247.601C247.493 85.6201 247.389 85.6583 247.312 85.7263C247.235 85.7943 247.192 85.8865 247.192 85.9827C247.192 86.0789 247.235 86.1711 247.312 86.2391C247.389 86.3071 247.493 86.3453 247.601 86.3453Z" fill="#F2F2F2"/>
<path d="M247.601 94.0776H259.414C259.522 94.0776 259.626 94.0394 259.703 93.9714C259.779 93.9034 259.823 93.8112 259.823 93.715C259.823 93.6188 259.779 93.5266 259.703 93.4586C259.626 93.3906 259.522 93.3524 259.414 93.3524H247.601C247.493 93.3524 247.389 93.3906 247.312 93.4586C247.235 93.5266 247.192 93.6188 247.192 93.715C247.192 93.8112 247.235 93.9034 247.312 93.9714C247.389 94.0394 247.493 94.0776 247.601 94.0776Z" fill="#F2F2F2"/>
<path d="M242.804 90.214H264.211C264.319 90.214 264.423 90.1758 264.5 90.1078C264.576 90.0398 264.619 89.9476 264.619 89.8514C264.619 89.7552 264.576 89.663 264.5 89.595C264.423 89.527 264.319 89.4888 264.211 89.4888H242.804C242.696 89.4888 242.592 89.527 242.515 89.595C242.438 89.663 242.395 89.7552 242.395 89.8514C242.395 89.9476 242.438 90.0398 242.515 90.1078C242.592 90.1758 242.696 90.214 242.804 90.214Z" fill="#F2F2F2"/>
<path d="M242.585 97.2215H250.319C250.427 97.2215 250.531 97.1834 250.608 97.1153C250.684 97.0473 250.727 96.9551 250.727 96.8589C250.727 96.7628 250.684 96.6706 250.608 96.6026C250.531 96.5346 250.427 96.4963 250.319 96.4963H242.585C242.477 96.4963 242.373 96.5346 242.296 96.6026C242.22 96.6706 242.177 96.7628 242.177 96.8589C242.177 96.9551 242.22 97.0473 242.296 97.1153C242.373 97.1834 242.477 97.2215 242.585 97.2215Z" fill="#F2F2F2"/>
<path d="M308.751 115.3L309.036 115.175C325.705 107.863 343.738 107.87 364.164 115.195L364.712 113.991C343.994 106.562 325.659 106.527 308.674 113.886C284.771 105.815 269.404 92.1377 262.998 73.227L261.595 73.6011C268.167 92.9968 283.933 106.993 308.453 115.2L308.751 115.3Z" fill="#F2F2F2"/>
<path d="M239.214 115.3L239.501 115.18C255.883 108.361 273.927 108.368 294.662 115.201L295.172 113.984C274.173 107.063 255.848 107.03 239.167 113.886C212.404 104.399 197.04 90.7447 193.496 73.299L192.055 73.5291C195.708 91.5094 211.476 105.528 238.92 115.196L239.214 115.3Z" fill="#F2F2F2"/>
<path d="M184.412 114.609L184.593 114.54C198.092 109.391 215.655 109.402 239.86 114.575L240.203 113.312C215.782 108.094 197.978 108.081 184.197 113.278C156.843 110.31 141.931 97.0312 138.617 72.6868L137.163 72.8428C140.579 97.9258 155.971 111.581 184.217 114.588L184.412 114.609Z" fill="#F2F2F2"/>
<path d="M256.131 76.2869C252.898 76.2869 250.277 73.9615 250.277 71.0929C250.277 68.2244 252.898 65.8989 256.131 65.8989C259.364 65.8989 261.985 68.2244 261.985 71.0929C261.985 73.9615 259.364 76.2869 256.131 76.2869Z" fill="#EDD147"/>
<path d="M190.269 76.2869C187.035 76.2869 184.414 73.9615 184.414 71.0929C184.414 68.2244 187.035 65.8989 190.269 65.8989C193.502 65.8989 196.123 68.2244 196.123 71.0929C196.123 73.9615 193.502 76.2869 190.269 76.2869Z" fill="#EDD147"/>
<path d="M137.579 75.6377C134.346 75.6377 131.724 73.3123 131.724 70.4437C131.724 67.5751 134.346 65.2497 137.579 65.2497C140.812 65.2497 143.433 67.5751 143.433 70.4437C143.433 73.3123 140.812 75.6377 137.579 75.6377Z" fill="#EDD147"/>
<path d="M300.777 154.863H362.316C363.912 154.862 365.443 154.298 366.572 153.296C367.701 152.295 368.337 150.936 368.338 149.52V95.5892C368.337 94.1725 367.701 92.8144 366.572 91.8126C365.443 90.8109 363.912 90.2474 362.316 90.2458H300.777C299.18 90.2474 297.649 90.8109 296.52 91.8126C295.391 92.8144 294.756 94.1725 294.754 95.5892V149.52C294.756 150.936 295.391 152.295 296.52 153.296C297.649 154.298 299.18 154.862 300.777 154.863Z" fill="#E6E6E6"/>
<path d="M311.022 150.318H372.561C374.158 150.317 375.689 149.753 376.818 148.752C377.947 147.75 378.582 146.392 378.584 144.975V91.0444C378.582 89.6278 377.947 88.2696 376.818 87.2679C375.689 86.2661 374.158 85.7027 372.561 85.7011H311.022C309.425 85.7027 307.895 86.2661 306.765 87.2679C305.636 88.2696 305.001 89.6278 304.999 91.0444V144.975C305.001 146.392 305.636 147.75 306.765 148.752C307.895 149.753 309.425 150.317 311.022 150.318Z" fill="#E6E6E6"/>
<path d="M361.1 87.2931C365.261 87.2931 369.252 88.7595 372.194 91.3698C375.136 93.9801 376.789 97.5205 376.789 101.212V143.831C376.789 144.474 376.646 145.11 376.369 145.704C376.092 146.298 375.685 146.838 375.173 147.292C374.661 147.747 374.052 148.108 373.383 148.354C372.713 148.6 371.996 148.726 371.271 148.726H333.642C330.116 148.726 326.625 148.11 323.368 146.913C320.11 145.716 317.151 143.962 314.658 141.75C312.165 139.538 310.187 136.912 308.838 134.022C307.489 131.132 306.794 128.035 306.794 124.907V92.1886C306.794 90.8902 307.375 89.645 308.41 88.727C309.445 87.8089 310.849 87.2931 312.312 87.2931H361.1Z" fill="white"/>
<path d="M325.31 102.966H358.402C358.706 102.966 358.997 102.859 359.212 102.668C359.427 102.478 359.547 102.219 359.547 101.95C359.547 101.68 359.427 101.422 359.212 101.232C358.997 101.041 358.706 100.934 358.402 100.934H325.31C325.006 100.934 324.715 101.041 324.5 101.232C324.285 101.422 324.165 101.68 324.165 101.95C324.165 102.219 324.285 102.478 324.5 102.668C324.715 102.859 325.006 102.966 325.31 102.966Z" fill="#E6E6E6"/>
<path d="M325.31 124.627H358.402C358.553 124.627 358.702 124.601 358.841 124.55C358.981 124.5 359.107 124.425 359.214 124.33C359.32 124.236 359.405 124.124 359.463 124.001C359.52 123.877 359.55 123.745 359.55 123.611C359.55 123.478 359.52 123.345 359.463 123.222C359.405 123.098 359.32 122.986 359.214 122.892C359.107 122.798 358.981 122.723 358.841 122.672C358.702 122.621 358.553 122.595 358.402 122.595H325.31C325.007 122.596 324.716 122.703 324.502 122.894C324.288 123.084 324.168 123.342 324.168 123.611C324.168 123.88 324.288 124.138 324.502 124.329C324.716 124.519 325.007 124.626 325.31 124.627Z" fill="#E6E6E6"/>
<path d="M311.872 113.803H371.841C372.144 113.803 372.435 113.696 372.65 113.506C372.865 113.315 372.985 113.057 372.985 112.788C372.985 112.518 372.865 112.26 372.65 112.069C372.435 111.879 372.144 111.772 371.841 111.772H311.872C311.568 111.772 311.277 111.879 311.062 112.069C310.847 112.26 310.727 112.518 310.727 112.788C310.727 113.057 310.847 113.315 311.062 113.506C311.277 113.696 311.568 113.803 311.872 113.803Z" fill="#E6E6E6"/>
<path d="M311.259 133.434H332.923C333.074 133.434 333.222 133.408 333.361 133.357C333.5 133.306 333.627 133.231 333.733 133.137C333.839 133.043 333.923 132.931 333.981 132.807C334.039 132.684 334.068 132.552 334.068 132.419C334.068 132.285 334.039 132.153 333.981 132.03C333.923 131.907 333.839 131.795 333.733 131.7C333.627 131.606 333.5 131.531 333.361 131.48C333.222 131.429 333.074 131.403 332.923 131.403H311.259C310.956 131.403 310.664 131.51 310.45 131.7C310.235 131.891 310.114 132.149 310.114 132.419C310.114 132.688 310.235 132.946 310.45 133.137C310.664 133.327 310.956 133.434 311.259 133.434Z" fill="#E6E6E6"/>
<path d="M164.93 100.651H186.897C187.467 100.651 188.013 100.45 188.416 100.092C188.819 99.7346 189.046 99.2498 189.047 98.7441V79.4928C189.046 78.9871 188.819 78.5023 188.416 78.1447C188.013 77.7871 187.467 77.586 186.897 77.5854H164.93C164.36 77.586 163.813 77.7871 163.41 78.1447C163.007 78.5023 162.78 78.9871 162.78 79.4928V98.7441C162.78 99.2498 163.007 99.7346 163.41 100.092C163.813 100.45 164.36 100.651 164.93 100.651Z" fill="#F2F2F2"/>
<path d="M161.273 102.274H183.24C183.81 102.273 184.356 102.072 184.759 101.714C185.162 101.357 185.389 100.872 185.389 100.366V81.1151C185.389 80.6094 185.162 80.1246 184.759 79.767C184.356 79.4095 183.81 79.2083 183.24 79.2078H161.273C160.703 79.2083 160.156 79.4095 159.753 79.767C159.35 80.1246 159.123 80.6094 159.123 81.1151V100.366C159.123 100.872 159.35 101.357 159.753 101.714C160.156 102.072 160.703 102.273 161.273 102.274Z" fill="#F2F2F2"/>
<path d="M186.436 78.1537C186.959 78.1537 187.46 78.3378 187.829 78.6656C188.199 78.9933 188.406 79.4378 188.406 79.9013V98.3356C188.406 98.7991 188.199 99.2436 187.829 99.5713C187.46 99.8991 186.959 100.083 186.436 100.083H173.004C170.462 100.083 168.025 99.1874 166.227 97.5928C164.43 95.9983 163.421 93.8356 163.421 91.5806V79.9013C163.421 79.4378 163.628 78.9933 163.997 78.6656C164.367 78.3378 164.868 78.1537 165.39 78.1537H186.436Z" fill="white"/>
<path d="M170.03 83.7483H181.843C181.951 83.7483 182.055 83.7101 182.132 83.6421C182.208 83.5741 182.251 83.4819 182.251 83.3857C182.251 83.2895 182.208 83.1973 182.132 83.1293C182.055 83.0613 181.951 83.0231 181.843 83.0231H170.03C169.921 83.0231 169.818 83.0613 169.741 83.1293C169.664 83.1973 169.621 83.2895 169.621 83.3857C169.621 83.4819 169.664 83.5741 169.741 83.6421C169.818 83.7101 169.921 83.7483 170.03 83.7483Z" fill="#F2F2F2"/>
<path d="M170.03 91.4806H181.843C181.951 91.4806 182.055 91.4424 182.132 91.3744C182.208 91.3064 182.251 91.2142 182.251 91.118C182.251 91.0218 182.208 90.9296 182.132 90.8616C182.055 90.7936 181.951 90.7554 181.843 90.7554H170.03C169.921 90.7554 169.818 90.7936 169.741 90.8616C169.664 90.9296 169.621 91.0218 169.621 91.118C169.621 91.2142 169.664 91.3064 169.741 91.3744C169.818 91.4424 169.921 91.4806 170.03 91.4806Z" fill="#F2F2F2"/>
<path d="M165.233 87.617H186.64C186.748 87.617 186.852 87.5788 186.929 87.5108C187.005 87.4428 187.048 87.3505 187.048 87.2544C187.048 87.1582 187.005 87.066 186.929 86.998C186.852 86.93 186.748 86.8918 186.64 86.8918H165.233C165.125 86.8918 165.021 86.93 164.944 86.998C164.867 87.066 164.824 87.1582 164.824 87.2544C164.824 87.3505 164.867 87.4428 164.944 87.5108C165.021 87.5788 165.125 87.617 165.233 87.617Z" fill="#F2F2F2"/>
<path d="M165.014 94.6245H172.748C172.856 94.6245 172.96 94.5863 173.037 94.5183C173.113 94.4503 173.156 94.3581 173.156 94.2619C173.156 94.1658 173.113 94.0735 173.037 94.0055C172.96 93.9375 172.856 93.8993 172.748 93.8993H165.014C164.906 93.8993 164.802 93.9375 164.725 94.0055C164.649 94.0735 164.606 94.1658 164.606 94.2619C164.606 94.3581 164.649 94.4503 164.725 94.5183C164.802 94.5863 164.906 94.6245 165.014 94.6245Z" fill="#F2F2F2"/>
<path d="M416.75 361.747C417.09 361.76 417.426 361.681 417.714 361.52C418.002 361.358 418.227 361.122 418.358 360.843C418.489 360.564 418.521 360.257 418.449 359.961C418.376 359.666 418.203 359.398 417.953 359.193L417.839 358.792C417.854 358.759 417.869 358.727 417.885 358.695C418.227 357.977 418.801 357.365 419.535 356.935C420.269 356.506 421.129 356.278 422.008 356.281C422.887 356.284 423.745 356.517 424.475 356.952C425.205 357.386 425.774 358.002 426.111 358.722C427.457 361.597 429.17 364.477 429.591 367.517C429.777 368.861 429.699 370.223 429.36 371.543C432.52 365.427 434.161 358.78 434.172 352.052C434.172 350.363 434.066 348.676 433.855 346.999C433.68 345.623 433.437 344.257 433.127 342.902C431.433 335.545 427.796 328.649 422.516 322.782C419.96 321.544 417.893 319.642 416.593 317.33C416.122 316.499 415.79 315.612 415.605 314.697C415.894 314.73 416.692 310.834 416.475 310.595C416.877 310.054 417.596 309.786 418.035 309.258C420.217 306.633 423.224 307.091 424.794 310.658C428.147 312.16 428.18 314.65 426.122 317.045C424.813 318.569 424.633 320.63 423.485 322.261C423.603 322.396 423.726 322.526 423.844 322.66C426.004 325.124 427.887 327.77 429.465 330.56C429.081 327.435 429.539 324.273 430.801 321.335C432.081 318.597 434.479 316.291 436.59 313.924C437.149 313.288 437.907 312.813 438.77 312.56C439.632 312.306 440.56 312.285 441.436 312.499C442.312 312.714 443.097 313.153 443.691 313.763C444.285 314.373 444.662 315.125 444.775 315.925C444.779 315.96 444.783 315.995 444.787 316.03C444.474 316.187 444.167 316.354 443.866 316.53C443.489 316.754 443.197 317.073 443.027 317.447C442.858 317.821 442.82 318.231 442.918 318.624C443.017 319.017 443.246 319.375 443.578 319.65C443.909 319.925 444.326 320.106 444.775 320.167L444.821 320.173C444.709 321.176 444.511 322.17 444.23 323.146C446.939 332.441 441.09 335.826 432.739 335.978C432.555 336.062 432.375 336.146 432.191 336.226C433.777 340.212 434.771 344.365 435.15 348.579C435.364 351.066 435.352 353.563 435.112 356.048L435.126 355.96C435.731 353.197 437.392 350.704 439.829 348.902C443.448 346.265 448.562 345.293 452.466 343.173C452.881 342.937 453.364 342.811 453.857 342.81C454.35 342.809 454.833 342.933 455.249 343.167C455.666 343.402 455.998 343.737 456.206 344.133C456.415 344.53 456.491 344.971 456.426 345.405L456.41 345.497C455.828 345.708 455.261 345.95 454.713 346.223C454.4 346.38 454.093 346.546 453.792 346.723C453.415 346.946 453.122 347.266 452.953 347.64C452.784 348.013 452.746 348.424 452.844 348.817C452.943 349.21 453.172 349.567 453.503 349.843C453.835 350.118 454.252 350.298 454.7 350.36L454.746 350.366C454.78 350.37 454.808 350.374 454.841 350.378C453.846 352.485 452.451 354.424 450.715 356.111C449.021 364.225 441.746 364.994 433.963 362.632H433.959C433.105 365.924 431.868 369.128 430.267 372.193H417.08C417.033 372.063 416.99 371.928 416.948 371.798C418.168 371.867 419.394 371.802 420.597 371.606C419.618 370.54 418.64 369.467 417.661 368.402C417.64 368.382 417.619 368.361 417.6 368.339C417.104 367.794 416.603 367.253 416.106 366.708L416.106 366.707C416.08 365.036 416.296 363.369 416.749 361.747L416.75 361.747Z" fill="#F2F2F2"/>
<path d="M597 372.227C597 372.329 596.978 372.43 596.934 372.523C596.891 372.617 596.827 372.703 596.746 372.774C596.665 372.846 596.569 372.903 596.463 372.942C596.357 372.981 596.244 373 596.129 373H410.771C410.54 373 410.318 372.919 410.155 372.774C409.992 372.629 409.9 372.432 409.9 372.227C409.9 372.022 409.992 371.826 410.155 371.681C410.318 371.536 410.54 371.455 410.771 371.455H596.129C596.244 371.455 596.357 371.474 596.463 371.513C596.569 371.552 596.665 371.609 596.746 371.68C596.827 371.752 596.891 371.838 596.934 371.931C596.978 372.025 597 372.126 597 372.227Z" fill="#CCCCCC"/>
<path d="M517.611 45.2463L513.213 45.045C514.666 45.2567 516.141 45.3242 517.611 45.2463Z" fill="#F2F2F2"/>
<path d="M491.405 61.0491L492.13 61.8671L494.076 64.0616L510.886 83.0262L535.306 60.8478L534.333 60.1596L529.152 50.3884L502.536 48.7652L494.574 59.9064L491.405 61.0491Z" fill="#3F3D56"/>
</g>
<defs>
<clipPath id="clip0_3_3">
<rect width="597" height="373" fill="white" transform="matrix(-1 0 0 1 597 0)"/>
</clipPath>
</defs>
</svg>
