<svg width="114" height="84" viewBox="0 0 114 84" fill="none" xmlns="http://www.w3.org/2000/svg">
<path d="M15.904 39.392C15.1147 39.7333 14.1973 39.9787 13.152 40.128C12.1067 40.2773 11.136 40.352 10.24 40.352C7.33867 40.352 5.06667 39.5947 3.424 38.08C1.78133 36.5653 0.96 34.24 0.96 31.104C0.96 27.904 1.824 25.5147 3.552 23.936C5.28 22.336 7.712 21.536 10.848 21.536C12.3413 21.536 13.8987 21.7387 15.52 22.144C15.52 22.5707 15.4773 23.2107 15.392 24.064C15.3067 24.896 15.2213 25.4827 15.136 25.824H13.12C11.648 25.824 10.4853 25.856 9.632 25.92C8.8 25.9627 8.29867 26.0587 8.128 26.208C7.808 26.5067 7.56267 27.1147 7.392 28.032C7.22133 28.928 7.136 29.792 7.136 30.624C7.136 32.0747 7.31733 33.1947 7.68 33.984C8.04267 34.752 8.50133 35.264 9.056 35.52C9.58933 35.776 10.4747 35.904 11.712 35.904C12.6933 35.904 13.9733 35.8187 15.552 35.648L15.904 39.392ZM26.6463 36.16C27.1796 36.16 28.1716 36.1067 29.6223 36C29.8143 36 30.1663 35.9787 30.6783 35.936L31.1583 39.232C29.5156 40 27.3823 40.384 24.7583 40.384C22.3049 40.384 20.4169 39.7653 19.0943 38.528C17.7929 37.2907 17.1423 35.424 17.1423 32.928C17.1423 31.648 17.3023 30.4107 17.6223 29.216C17.9636 28.0213 18.3476 27.1893 18.7743 26.72C19.2223 26.2507 20.0543 25.8453 21.2703 25.504C22.4863 25.1627 23.6916 24.992 24.8863 24.992C26.8063 24.992 28.2463 25.3333 29.2063 26.016C30.1663 26.6987 30.7956 27.648 31.0943 28.864C31.3929 30.0587 31.5423 31.6693 31.5423 33.696C30.0916 33.7813 28.6729 33.824 27.2863 33.824H22.7423C22.7423 34.5067 22.8809 35.0187 23.1583 35.36C23.4569 35.7013 23.8729 35.9253 24.4062 36.032C24.9396 36.1173 25.6863 36.16 26.6463 36.16ZM23.0623 28.8C22.9343 28.864 22.8383 29.1413 22.7743 29.632C22.7103 30.1227 22.6676 30.6773 22.6463 31.296H24.3103C25.3129 31.296 26.0383 31.2853 26.4863 31.264C26.4863 30.24 26.3369 29.5147 26.0383 29.088C25.7609 28.6613 25.2703 28.448 24.5663 28.448C23.9903 28.448 23.4889 28.5653 23.0623 28.8ZM47.7083 26.208C47.9003 26.4427 48.0389 27.0293 48.1243 27.968C48.2309 28.9067 48.2843 30.336 48.2843 32.256V40H42.8123V32.32V31.008C42.8123 30.3253 42.7589 29.8987 42.6523 29.728C42.4816 29.5147 42.0869 29.408 41.4683 29.408C41.1696 29.408 40.9456 29.4187 40.7963 29.44C40.1989 29.4613 39.5803 29.6 38.9403 29.856V40H33.4683V25.28H37.9163L38.5243 27.744C40.0603 25.888 41.8949 24.96 44.0283 24.96C44.7963 24.96 45.5109 25.0667 46.1723 25.28C46.8549 25.4933 47.3669 25.8027 47.7083 26.208ZM79.182 24.96C79.4593 24.96 79.7473 24.992 80.046 25.056C80.366 25.12 80.6007 25.1947 80.75 25.28C80.75 25.7493 80.6967 26.528 80.59 27.616C80.4833 28.6827 80.3873 29.44 80.302 29.888C80.0887 29.8667 79.694 29.856 79.118 29.856C77.774 29.856 76.5793 29.9307 75.534 30.08V40H70.062V25.28H74.638L75.278 27.648H75.31C75.9287 26.8373 76.59 26.1867 77.294 25.696C77.998 25.2053 78.6273 24.96 79.182 24.96ZM89.291 40.416C86.731 40.416 84.811 39.8187 83.531 38.624C82.2723 37.408 81.643 35.4987 81.643 32.896C81.643 31.4667 81.771 30.2187 82.027 29.152C82.3043 28.064 82.635 27.3067 83.019 26.88C83.5097 26.3253 84.4057 25.8667 85.707 25.504C87.0297 25.1413 88.267 24.96 89.419 24.96C92.171 24.96 94.1337 25.5467 95.307 26.72C96.4803 27.8933 97.067 29.7707 97.067 32.352C97.067 35.1253 96.4377 37.1627 95.179 38.464C93.9203 39.7653 91.9577 40.416 89.291 40.416ZM89.387 36.672C90.219 36.672 90.763 36.384 91.019 35.808C91.275 35.2107 91.403 34.1653 91.403 32.672C91.403 31.6267 91.3497 30.8267 91.243 30.272C91.1363 29.696 90.9337 29.28 90.635 29.024C90.3577 28.7467 89.9203 28.608 89.323 28.608C88.4697 28.608 87.979 28.6827 87.851 28.832C87.6803 28.9813 87.5417 29.4507 87.435 30.24C87.3283 31.0293 87.275 31.8507 87.275 32.704C87.275 34.1547 87.4137 35.1787 87.691 35.776C87.9897 36.3733 88.555 36.672 89.387 36.672Z" fill="black"/>
<path d="M76.24 53.16C76.7733 53.16 77.7653 53.1067 79.216 53C79.408 53 79.76 52.9787 80.272 52.936L80.752 56.232C79.1093 57 76.976 57.384 74.352 57.384C71.8987 57.384 70.0107 56.7653 68.688 55.528C67.3867 54.2907 66.736 52.424 66.736 49.928C66.736 48.648 66.896 47.4107 67.216 46.216C67.5573 45.0213 67.9413 44.1893 68.368 43.72C68.816 43.2507 69.648 42.8453 70.864 42.504C72.08 42.1627 73.2853 41.992 74.48 41.992C76.4 41.992 77.84 42.3333 78.8 43.016C79.76 43.6987 80.3893 44.648 80.688 45.864C80.9867 47.0587 81.136 48.6693 81.136 50.696C79.6853 50.7813 78.2667 50.824 76.88 50.824H72.336C72.336 51.5067 72.4747 52.0187 72.752 52.36C73.0507 52.7013 73.4667 52.9253 74 53.032C74.5333 53.1173 75.28 53.16 76.24 53.16ZM72.656 45.8C72.528 45.864 72.432 46.1413 72.368 46.632C72.304 47.1227 72.2613 47.6773 72.24 48.296H73.904C74.9067 48.296 75.632 48.2853 76.08 48.264C76.08 47.24 75.9307 46.5147 75.632 46.088C75.3547 45.6613 74.864 45.448 74.16 45.448C73.584 45.448 73.0827 45.5653 72.656 45.8ZM95.446 56.552C93.718 57.128 91.7873 57.416 89.654 57.416C87.2647 57.416 85.4727 56.8187 84.278 55.624C83.1047 54.408 82.518 52.52 82.518 49.96C82.518 48.7013 82.6887 47.464 83.03 46.248C83.3713 45.0107 83.734 44.1787 84.118 43.752C84.566 43.2613 85.4407 42.8453 86.742 42.504C88.0647 42.1627 89.43 41.992 90.838 41.992C92.31 41.992 93.7927 42.12 95.286 42.376C95.2433 42.9093 95.1687 43.5387 95.062 44.264C94.9767 44.968 94.8807 45.5973 94.774 46.152C93.4513 46.0667 92.2033 46.024 91.03 46.024C89.878 46.024 89.142 46.088 88.822 46.216C88.6513 46.28 88.4913 46.7173 88.342 47.528C88.214 48.3387 88.15 49.096 88.15 49.8C88.15 50.7387 88.278 51.464 88.534 51.976C88.8113 52.4667 89.238 52.808 89.814 53C90.39 53.192 91.1687 53.288 92.15 53.288C92.5767 53.288 93.5153 53.2453 94.966 53.16L95.446 56.552ZM111.521 43.208C111.713 43.4427 111.851 44.0293 111.937 44.968C112.043 45.9067 112.097 47.336 112.097 49.256V57H106.625V49.32C106.625 49.2347 106.625 48.8187 106.625 48.072C106.625 47.304 106.571 46.8347 106.465 46.664C106.401 46.5787 106.241 46.5147 105.985 46.472C105.75 46.4293 105.473 46.408 105.153 46.408L104.609 46.44C104.011 46.4613 103.393 46.6 102.753 46.856V57H97.2808V37.8L102.753 37.576V41.32C102.753 42.856 102.699 43.88 102.593 44.392L102.625 44.424C104.075 42.7813 105.814 41.96 107.841 41.96C108.609 41.96 109.323 42.0667 109.985 42.28C110.667 42.4933 111.179 42.8027 111.521 43.208Z" fill="#4E47ED"/>
<path d="M64.336 50H52.816V21.52H42.512V13.52H74.64V21.52H64.336V50Z" fill="#4E47ED"/>
</svg>
