<svg width="32" height="32" viewBox="0 0 32 32" fill="none" xmlns="http://www.w3.org/2000/svg">
<g id="icon/action/search_24px">
<path id="icon/action/search_24px_2" fill-rule="evenodd" clip-rule="evenodd" d="M20.2488 19.2954H21.3021L26.9554 24.9754C27.5021 25.5221 27.5021 26.4154 26.9554 26.9621C26.4088 27.5088 25.5154 27.5088 24.9688 26.9621L19.3021 21.2954V20.2421L18.9421 19.8688C17.0754 21.4688 14.5288 22.2954 11.8221 21.8421C8.11542 21.2154 5.15542 18.1221 4.70208 14.3888C4.00875 8.74875 8.75542 4.00209 14.3954 4.69542C18.1288 5.14875 21.2221 8.10875 21.8488 11.8154C22.3021 14.5221 21.4754 17.0688 19.8754 18.9354L20.2488 19.2954ZM7.30208 13.2954C7.30208 16.6154 9.98208 19.2954 13.3021 19.2954C16.6221 19.2954 19.3021 16.6154 19.3021 13.2954C19.3021 9.97542 16.6221 7.29542 13.3021 7.29542C9.98208 7.29542 7.30208 9.97542 7.30208 13.2954Z" fill="white"/>
</g>
</svg>
